<svg width="1280" height="760" viewBox="0 0 1280 760" fill="none" xmlns="http://www.w3.org/2000/svg">
  <rect width="1280" height="760" fill="#0b1117"/>
  <rect x="0" y="0" width="240" height="760" fill="#111820"/>
  <rect x="240" y="0" width="1" height="760" fill="#263443"/>
  <rect x="17" y="168" width="202" height="40" rx="6" fill="#16877d"/>
  <circle cx="39" cy="69" r="18" fill="#16877d"/>
  <text x="72" y="65" fill="#f7fafc" font-family="Inter, Arial" font-size="16" font-weight="700">KeyFrog</text>
  <text x="72" y="86" fill="#a8bdd3" font-family="Inter, Arial" font-size="13">Локальное хранилище</text>
  <text x="58" y="148" fill="#a8bdd3" font-family="Inter, Arial" font-size="14" font-weight="700">Хранилище</text>
  <text x="58" y="193" fill="#ffffff" font-family="Inter, Arial" font-size="14" font-weight="700">Генератор</text>
  <text x="58" y="238" fill="#a8bdd3" font-family="Inter, Arial" font-size="14" font-weight="700">Настройки</text>
  <text x="264" y="75" fill="#f7fafc" font-family="Inter, Arial" font-size="28" font-weight="700">Генератор паролей</text>
  <text x="264" y="102" fill="#b7d1ee" font-family="Inter, Arial" font-size="14">Генерация с локальной случайностью ОС.</text>
  <rect x="264" y="128" width="620" height="306" rx="6" fill="#111820" stroke="#304153"/>
  <text x="288" y="164" fill="#ffffff" font-family="Inter, Arial" font-size="15" font-weight="700">Длина</text>
  <rect x="288" y="190" width="460" height="6" rx="3" fill="#304153"/>
  <rect x="288" y="190" width="165" height="6" rx="3" fill="#16877d"/>
  <circle cx="453" cy="193" r="8" fill="#16877d"/>
  <rect x="770" y="174" width="90" height="42" rx="6" fill="#111820" stroke="#304153"/>
  <text x="806" y="201" fill="#ffffff" font-family="Inter, Arial" font-size="15" font-weight="700">24</text>
  <rect x="288" y="242" width="270" height="45" rx="6" fill="#1a242e" stroke="#304153"/>
  <text x="332" y="270" fill="#ffffff" font-family="Inter, Arial" font-size="14" font-weight="700">Строчные</text>
  <rect x="570" y="242" width="270" height="45" rx="6" fill="#1a242e" stroke="#304153"/>
  <text x="614" y="270" fill="#ffffff" font-family="Inter, Arial" font-size="14" font-weight="700">Заглавные</text>
  <rect x="288" y="298" width="270" height="45" rx="6" fill="#1a242e" stroke="#304153"/>
  <text x="332" y="326" fill="#ffffff" font-family="Inter, Arial" font-size="14" font-weight="700">Цифры</text>
  <rect x="570" y="298" width="270" height="45" rx="6" fill="#1a242e" stroke="#304153"/>
  <text x="614" y="326" fill="#ffffff" font-family="Inter, Arial" font-size="14" font-weight="700">Символы</text>
  <rect x="288" y="370" width="132" height="42" rx="6" fill="#16877d"/>
  <text x="332" y="397" fill="#ffffff" font-family="Inter, Arial" font-size="14" font-weight="700">Сгенерировать</text>
  <rect x="904" y="128" width="328" height="170" rx="6" fill="#111820" stroke="#304153"/>
  <text x="928" y="164" fill="#ffffff" font-family="Inter, Arial" font-size="18" font-weight="700">Результат</text>
  <rect x="928" y="186" width="280" height="44" rx="6" fill="#1a242e" stroke="#304153"/>
  <text x="944" y="214" fill="#ffffff" font-family="Consolas, monospace" font-size="14">f7Q#raM92!sLp...</text>
  <rect x="928" y="246" width="120" height="38" rx="6" fill="#16877d"/>
  <text x="967" y="270" fill="#ffffff" font-family="Inter, Arial" font-size="13" font-weight="700">Копировать</text>
  <rect x="904" y="318" width="328" height="214" rx="6" fill="#111820" stroke="#304153"/>
  <text x="928" y="354" fill="#ffffff" font-family="Inter, Arial" font-size="18" font-weight="700">Паттерны</text>
  <rect x="928" y="378" width="280" height="42" rx="6" fill="#1a242e" stroke="#304153"/>
  <rect x="928" y="438" width="280" height="48" rx="6" fill="#1a242e" stroke="#304153"/>
  <text x="944" y="468" fill="#ffffff" font-family="Inter, Arial" font-size="14" font-weight="700">Default Pattern</text>
</svg>
